<svg width="129" height="42" viewBox="0 0 129 42" fill="none" xmlns="http://www.w3.org/2000/svg">
<path opacity="0.5" d="M40.0652 2.25671L30.2601 36.9917C30.2102 37.1494 30.0108 37.1967 29.8945 37.0863L23.3301 30.8583L28.2492 13.4514C28.2991 13.2937 28.1495 13.1518 27.9833 13.1991L9.63617 17.8662L3.10498 11.6697C2.98865 11.5593 3.03851 11.3701 3.20469 11.3228L39.7993 2.00444C39.9655 1.97291 40.115 2.11481 40.0652 2.25671Z" fill="#00B37E"/>
<path opacity="0.5" d="M23.3297 30.858L20.8037 39.8452C20.7538 40.0029 20.5544 40.0502 20.4381 39.9398L0.0634003 20.6251C-0.0529313 20.5147 -0.00307518 20.3255 0.163113 20.2782L9.63583 17.8658L23.3297 30.858Z" fill="#00B37E"/>
<path d="M28.2484 13.4511L23.3292 30.858L9.63533 17.8659L27.9825 13.1988C28.1487 13.1515 28.2982 13.2934 28.2484 13.4511Z" fill="#00B37E"/>
<path d="M67.1594 24.7402C67.1594 24.4154 67.1094 24.1239 67.0095 23.8657C66.9179 23.5992 66.743 23.3577 66.4848 23.1411C66.2266 22.9163 65.8643 22.6956 65.3979 22.479C64.9315 22.2625 64.3277 22.0376 63.5864 21.8044C62.7619 21.5379 61.979 21.2381 61.2378 20.9049C60.5049 20.5718 59.8552 20.1845 59.2889 19.7431C58.7309 19.2934 58.2895 18.7728 57.9647 18.1815C57.6482 17.5902 57.4899 16.9031 57.4899 16.1202C57.4899 15.3623 57.6565 14.6752 57.9896 14.0589C58.3228 13.4342 58.7892 12.9012 59.3888 12.4598C59.9885 12.01 60.6964 11.6644 61.5126 11.4229C62.3372 11.1813 63.2408 11.0606 64.2236 11.0606C65.5645 11.0606 66.7346 11.3021 67.7341 11.7852C68.7335 12.2682 69.508 12.9303 70.0577 13.7715C70.6157 14.6127 70.8947 15.5747 70.8947 16.6574H67.1719C67.1719 16.1243 67.0594 15.6579 66.8346 15.2582C66.618 14.8501 66.2849 14.5294 65.8351 14.2962C65.3937 14.063 64.8357 13.9464 64.1611 13.9464C63.5115 13.9464 62.9701 14.0464 62.537 14.2462C62.104 14.4378 61.7791 14.7002 61.5626 15.0333C61.3461 15.3581 61.2378 15.7246 61.2378 16.1327C61.2378 16.4408 61.3127 16.7198 61.4627 16.9697C61.6209 17.2195 61.8541 17.4527 62.1623 17.6693C62.4704 17.8858 62.8494 18.0899 63.2991 18.2814C63.7488 18.473 64.2694 18.6604 64.8607 18.8436C65.8518 19.1434 66.7221 19.4807 67.4717 19.8555C68.2296 20.2303 68.8626 20.6509 69.3706 21.1173C69.8787 21.5837 70.2618 22.1126 70.52 22.7039C70.7781 23.2952 70.9072 23.9657 70.9072 24.7152C70.9072 25.5065 70.7532 26.2144 70.445 26.839C70.1368 27.4637 69.6913 27.9925 69.1083 28.4256C68.5253 28.8587 67.8298 29.1877 67.022 29.4126C66.2141 29.6374 65.3104 29.7499 64.311 29.7499C63.4115 29.7499 62.5245 29.6333 61.65 29.4001C60.7755 29.1585 59.9802 28.7962 59.2639 28.3132C58.556 27.8301 57.9896 27.2138 57.5649 26.4642C57.1401 25.7147 56.9278 24.8277 56.9278 23.8033H60.6881C60.6881 24.3696 60.7755 24.8485 60.9504 25.2399C61.1253 25.6314 61.371 25.9479 61.6875 26.1894C62.0123 26.4309 62.3955 26.6058 62.8369 26.7141C63.2866 26.8224 63.778 26.8765 64.311 26.8765C64.9606 26.8765 65.4937 26.7849 65.9101 26.6017C66.3349 26.4184 66.6472 26.1644 66.8471 25.8396C67.0553 25.5148 67.1594 25.1483 67.1594 24.7402ZM77.0287 15.9828V29.5H73.4183V15.9828H77.0287ZM73.1934 12.4598C73.1934 11.9351 73.3767 11.502 73.7431 11.1605C74.1096 10.819 74.601 10.6483 75.2173 10.6483C75.8252 10.6483 76.3125 10.819 76.6789 11.1605C77.0537 11.502 77.2411 11.9351 77.2411 12.4598C77.2411 12.9845 77.0537 13.4176 76.6789 13.759C76.3125 14.1005 75.8252 14.2712 75.2173 14.2712C74.601 14.2712 74.1096 14.1005 73.7431 13.759C73.3767 13.4176 73.1934 12.9845 73.1934 12.4598ZM86.2235 29.7499C85.1741 29.7499 84.2329 29.5833 83.4001 29.2501C82.5672 28.9087 81.8593 28.4381 81.2763 27.8385C80.7016 27.2388 80.2602 26.5434 79.952 25.7521C79.6439 24.9526 79.4898 24.1031 79.4898 23.2036V22.7039C79.4898 21.6795 79.6356 20.7425 79.9271 19.893C80.2186 19.0435 80.635 18.3064 81.1763 17.6818C81.726 17.0571 82.3923 16.5782 83.1752 16.2451C83.9581 15.9036 84.8409 15.7329 85.8237 15.7329C86.7815 15.7329 87.631 15.8911 88.3722 16.2076C89.1135 16.5241 89.7339 16.9739 90.2337 17.5569C90.7417 18.1398 91.1248 18.8394 91.383 19.6556C91.6412 20.4635 91.7703 21.363 91.7703 22.3541V23.8532H81.0264V21.4546H88.2348V21.1798C88.2348 20.6801 88.1432 20.2345 87.96 19.843C87.7851 19.4433 87.5185 19.1268 87.1604 18.8936C86.8023 18.6604 86.3442 18.5438 85.7862 18.5438C85.3115 18.5438 84.9034 18.6479 84.5619 18.8561C84.2204 19.0643 83.9414 19.3558 83.7249 19.7306C83.5167 20.1054 83.3584 20.5468 83.2502 21.0548C83.1502 21.5546 83.1002 22.1042 83.1002 22.7039V23.2036C83.1002 23.745 83.1752 24.2447 83.3251 24.7028C83.4834 25.1608 83.7041 25.5564 83.9872 25.8896C84.2787 26.2227 84.6285 26.4809 85.0366 26.6641C85.4531 26.8474 85.9236 26.939 86.4483 26.939C87.098 26.939 87.7018 26.814 88.2598 26.5642C88.8261 26.306 89.3133 25.9187 89.7214 25.4024L91.4704 27.3013C91.1873 27.7094 90.8 28.1008 90.3086 28.4756C89.8256 28.8504 89.2426 29.1585 88.5596 29.4001C87.8767 29.6333 87.098 29.7499 86.2235 29.7499ZM93.8191 10.311H97.417V26.4018L97.0547 29.5H93.8191V10.311ZM105.975 22.604V22.8663C105.975 23.8741 105.866 24.7985 105.65 25.6397C105.442 26.4809 105.117 27.2096 104.675 27.826C104.234 28.4339 103.684 28.9087 103.026 29.2501C102.377 29.5833 101.61 29.7499 100.728 29.7499C99.9031 29.7499 99.1869 29.5833 98.5789 29.2501C97.9792 28.917 97.4753 28.4464 97.0672 27.8385C96.6591 27.2305 96.3302 26.5184 96.0803 25.7022C95.8304 24.886 95.6431 23.9948 95.5181 23.0287V22.454C95.6431 21.4879 95.8304 20.5968 96.0803 19.7806C96.3302 18.9644 96.6591 18.2523 97.0672 17.6443C97.4753 17.0363 97.9792 16.5658 98.5789 16.2326C99.1785 15.8995 99.8864 15.7329 100.703 15.7329C101.594 15.7329 102.368 15.9036 103.026 16.2451C103.693 16.5782 104.242 17.053 104.675 17.6693C105.117 18.2773 105.442 19.0019 105.65 19.843C105.866 20.6759 105.975 21.5962 105.975 22.604ZM102.377 22.8663V22.604C102.377 22.0543 102.335 21.5379 102.252 21.0548C102.177 20.5635 102.044 20.1345 101.852 19.7681C101.66 19.3933 101.398 19.0976 101.065 18.8811C100.74 18.6645 100.32 18.5563 99.8032 18.5563C99.3118 18.5563 98.8954 18.6396 98.5539 18.8061C98.2124 18.9727 97.9292 19.2059 97.7044 19.5057C97.4878 19.8056 97.3254 20.1637 97.2171 20.5801C97.1089 20.9882 97.0422 21.438 97.0173 21.9293V23.5659C97.0422 24.2239 97.1505 24.8069 97.3421 25.3149C97.542 25.8146 97.8418 26.2102 98.2416 26.5017C98.6497 26.7849 99.1785 26.9265 99.8281 26.9265C100.336 26.9265 100.757 26.8265 101.09 26.6266C101.423 26.4268 101.681 26.1436 101.864 25.7771C102.056 25.4107 102.189 24.9818 102.264 24.4904C102.339 23.9907 102.377 23.4493 102.377 22.8663ZM112.184 11.3104V29.5H108.436V11.3104H112.184ZM119.429 19.081V22.0043H111.159V19.081H119.429ZM120.304 11.3104V14.2462H111.159V11.3104H120.304ZM126.051 15.9828V29.5H122.44V15.9828H126.051ZM122.215 12.4598C122.215 11.9351 122.399 11.502 122.765 11.1605C123.131 10.819 123.623 10.6483 124.239 10.6483C124.847 10.6483 125.334 10.819 125.701 11.1605C126.076 11.502 126.263 11.9351 126.263 12.4598C126.263 12.9845 126.076 13.4176 125.701 13.759C125.334 14.1005 124.847 14.2712 124.239 14.2712C123.623 14.2712 123.131 14.1005 122.765 13.759C122.399 13.4176 122.215 12.9845 122.215 12.4598Z" fill="#E1E1E6"/>
</svg>
